<svg width="274" height="138" viewBox="0 0 274 138" fill="none" xmlns="http://www.w3.org/2000/svg">
<path d="M251.73 22.0014H22.426V111.688H251.73V22.0014Z" fill="#FFE8CA"/>
<path d="M97.9478 127.262H2" stroke="black" stroke-width="3.2304" stroke-miterlimit="10" stroke-linecap="round"/>
<path d="M272 127.262H176.052" stroke="black" stroke-width="3.2304" stroke-miterlimit="10" stroke-linecap="round"/>
<path d="M264.096 125.227V8.93182H141.617" stroke="#0B0B0B" stroke-width="3" stroke-miterlimit="10" stroke-linecap="round" stroke-linejoin="round"/>
<path d="M132.461 22.8624H22.426V110.436H251.73V22.8624H141.617" stroke="#0B0B0B" stroke-width="3" stroke-miterlimit="10" stroke-linecap="round" stroke-linejoin="round"/>
<path d="M9.98254 125.227V8.93182H128.783" stroke="#0B0B0B" stroke-width="3" stroke-miterlimit="10" stroke-linecap="round" stroke-linejoin="round"/>
<path d="M96.4608 127.028L101.783 120.532L107.261 127.028L101.861 133.445L96.4608 127.028Z" fill="#FFE8CA" stroke="#0B0B0B" stroke-width="3" stroke-miterlimit="10" stroke-linecap="round" stroke-linejoin="round"/>
<path d="M166.896 127.028L172.217 120.532L177.774 127.028L172.296 133.445L166.896 127.028Z" fill="#FFE8CA" stroke="#0B0B0B" stroke-width="3" stroke-miterlimit="10" stroke-linecap="round" stroke-linejoin="round"/>
<path d="M258.617 8.93188L264.017 2.35797L269.652 8.93188L264.096 15.5058L258.617 8.93188Z" fill="#FFE8CA" stroke="#0B0B0B" stroke-width="3" stroke-miterlimit="10" stroke-linecap="round" stroke-linejoin="round"/>
<path d="M4.50433 8.93188L9.98259 2.35797L15.5391 8.93188L9.98259 15.5058L4.50433 8.93188Z" fill="#FFE8CA" stroke="#0B0B0B" stroke-width="3" stroke-miterlimit="10" stroke-linecap="round" stroke-linejoin="round"/>
<path d="M137.078 136.106L143.574 126.714C146 123.428 147.174 121.941 150.774 121.706C154.452 121.471 157.348 124.21 157.504 127.184C157.661 129.845 156.252 133.367 152.026 133.758C144.2 134.541 129.33 120.454 122.13 121.393C117.983 121.941 116.574 125.306 116.652 127.967C116.809 130.941 119.783 133.523 123.461 133.288C126.748 133.054 128.157 131.645 130.583 128.358L137.078 118.967" stroke="#0B0B0B" stroke-width="3" stroke-miterlimit="10" stroke-linecap="round" stroke-linejoin="round"/>
<path d="M123.304 128.984C124.212 128.984 124.948 128.248 124.948 127.341C124.948 126.433 124.212 125.697 123.304 125.697C122.397 125.697 121.661 126.433 121.661 127.341C121.661 128.248 122.397 128.984 123.304 128.984Z" fill="#0B0B0B"/>
<path d="M151.322 129.219C152.229 129.219 152.965 128.483 152.965 127.575C152.965 126.668 152.229 125.932 151.322 125.932C150.414 125.932 149.678 126.668 149.678 127.575C149.678 128.483 150.414 129.219 151.322 129.219Z" fill="#0B0B0B"/>
<path d="M136.843 24.3493C141.339 24.3493 144.983 19.8293 144.983 14.2536C144.983 8.67794 141.339 4.15796 136.843 4.15796C132.348 4.15796 128.704 8.67794 128.704 14.2536C128.704 19.8293 132.348 24.3493 136.843 24.3493Z" fill="#FFE8CA" stroke="#0B0B0B" stroke-width="3" stroke-miterlimit="10" stroke-linecap="round" stroke-linejoin="round"/>
<path d="M128.704 15.584C128.939 17.8536 132.383 21.3753 135.983 20.0449C138.33 19.1057 138.8 16.6014 137.391 14.8797C136.53 13.784 135.513 12.5318 135.904 10.8884C136.217 9.32314 137.313 8.46227 138.8 8.22749C141.93 7.6014 143.965 10.4188 144.278 11.4362" stroke="#0B0B0B" stroke-width="3" stroke-miterlimit="10" stroke-linecap="round" stroke-linejoin="round"/>
<path d="M90.2 75.2971L91.6869 72.0884C93.2521 73.1841 95.0521 74.2015 98.026 74.2015C99.6695 74.2015 101.626 73.4189 101.626 71.9319C101.626 70.4449 99.9043 70.0536 98.1826 69.6623C94.5826 68.8015 90.9043 67.6276 90.9043 63.558C90.9043 59.8797 94.3478 58.0015 98.1043 58.0015C101 58.0015 103.191 58.7841 105.148 60.0362L103.661 63.2449C102.096 62.2275 100.061 61.6797 98.1043 61.6797C97.0869 61.6797 95.2087 62.071 95.2087 63.558C95.2087 64.8102 96.6173 65.2797 98.4956 65.671C101.939 66.4536 106.009 67.7841 106.009 71.8536C106.009 76.0015 101.939 77.8015 98.1043 77.8015C93.4087 77.8797 91.2956 76.158 90.2 75.2971Z" fill="black"/>
<path d="M114.852 61.8363H108.278V58.2363H125.496V61.8363H118.922V77.5667H114.774V61.8363H114.852Z" fill="black"/>
<path d="M133.087 58.3145H137.157L145.53 77.5667H141.304L139.974 74.5145H130.191L128.861 77.5667H124.635L133.087 58.3145ZM138.722 71.2276L136.53 65.7493C135.904 64.2623 135.2 62.3841 135.2 62.3058C135.2 62.3841 134.417 64.2623 133.87 65.7493L131.678 71.2276H138.722Z" fill="black"/>
<path d="M148.348 58.3145H156.643C162.356 58.3145 165.33 61.6797 165.33 65.7493C165.33 68.2536 164.078 70.6015 161.652 71.8536L165.643 77.5667H160.87L157.896 73.0276C157.348 73.1058 156.8 73.1841 156.252 73.1841H152.574V77.5667H148.348V58.3145ZM156.8 69.6623C159.226 69.6623 160.948 67.9406 160.948 65.8276C160.948 63.6363 159.226 61.9145 156.878 61.9145H152.652V69.7406H156.8V69.6623Z" fill="black"/>
<path d="M173.783 61.8363H167.209V58.2363H184.426V61.8363H177.852V77.5667H173.704V61.8363H173.783Z" fill="black"/>
</svg>
