<svg width="254" height="128" viewBox="0 0 254 128" fill="none" xmlns="http://www.w3.org/2000/svg">
<path d="M233.232 20.5463H20.913V103.59H233.232V20.5463Z" fill="#FFE8CA"/>
<path d="M90.8406 118.01H2" stroke="black" stroke-width="3.2304" stroke-miterlimit="10" stroke-linecap="round"/>
<path d="M252 118.01H163.159" stroke="black" stroke-width="3.2304" stroke-miterlimit="10" stroke-linecap="round"/>
<path d="M244.681 116.126V8.44489H131.275" stroke="#0B0B0B" stroke-width="3" stroke-miterlimit="10" stroke-linecap="round" stroke-linejoin="round"/>
<path d="M122.797 21.3435H20.913V102.43H233.232V21.3435H131.275" stroke="#0B0B0B" stroke-width="3" stroke-miterlimit="10" stroke-linecap="round" stroke-linejoin="round"/>
<path d="M9.39124 116.126V8.44489H119.391" stroke="#0B0B0B" stroke-width="3" stroke-miterlimit="10" stroke-linecap="round" stroke-linejoin="round"/>
<path d="M89.4637 117.793L94.3913 111.778L99.4637 117.793L94.4637 123.735L89.4637 117.793Z" fill="#FFE8CA" stroke="#0B0B0B" stroke-width="3" stroke-miterlimit="10" stroke-linecap="round" stroke-linejoin="round"/>
<path d="M154.681 117.793L159.609 111.778L164.754 117.793L159.681 123.735L154.681 117.793Z" fill="#FFE8CA" stroke="#0B0B0B" stroke-width="3" stroke-miterlimit="10" stroke-linecap="round" stroke-linejoin="round"/>
<path d="M239.609 8.44493L244.609 2.35797L249.826 8.44493L244.681 14.5319L239.609 8.44493Z" fill="#FFE8CA" stroke="#0B0B0B" stroke-width="3" stroke-miterlimit="10" stroke-linecap="round" stroke-linejoin="round"/>
<path d="M4.31885 8.44493L9.39131 2.35797L14.5362 8.44493L9.39131 14.5319L4.31885 8.44493Z" fill="#FFE8CA" stroke="#0B0B0B" stroke-width="3" stroke-miterlimit="10" stroke-linecap="round" stroke-linejoin="round"/>
<path d="M127.072 126.199L133.087 117.503C135.333 114.459 136.42 113.083 139.754 112.865C143.159 112.648 145.841 115.184 145.986 117.938C146.13 120.401 144.826 123.662 140.913 124.025C133.667 124.749 119.899 111.706 113.232 112.575C109.391 113.083 108.087 116.199 108.159 118.662C108.304 121.416 111.058 123.807 114.464 123.59C117.507 123.372 118.812 122.068 121.058 119.025L127.072 110.329" stroke="#0B0B0B" stroke-width="3" stroke-miterlimit="10" stroke-linecap="round" stroke-linejoin="round"/>
<path d="M114.319 119.604C115.159 119.604 115.841 118.923 115.841 118.083C115.841 117.242 115.159 116.561 114.319 116.561C113.478 116.561 112.797 117.242 112.797 118.083C112.797 118.923 113.478 119.604 114.319 119.604Z" fill="#0B0B0B"/>
<path d="M140.261 119.822C141.101 119.822 141.783 119.14 141.783 118.3C141.783 117.46 141.101 116.778 140.261 116.778C139.42 116.778 138.739 117.46 138.739 118.3C138.739 119.14 139.42 119.822 140.261 119.822Z" fill="#0B0B0B"/>
<path d="M126.855 22.7202C131.017 22.7202 134.391 18.5351 134.391 13.3724C134.391 8.20976 131.017 4.0246 126.855 4.0246C122.693 4.0246 119.319 8.20976 119.319 13.3724C119.319 18.5351 122.693 22.7202 126.855 22.7202Z" fill="#FFE8CA" stroke="#0B0B0B" stroke-width="3" stroke-miterlimit="10" stroke-linecap="round" stroke-linejoin="round"/>
<path d="M119.319 14.6043C119.536 16.7058 122.725 19.9666 126.058 18.7348C128.232 17.8652 128.667 15.5464 127.362 13.9522C126.565 12.9377 125.623 11.7782 125.986 10.2565C126.275 8.80723 127.29 8.01013 128.667 7.79274C131.565 7.21303 133.449 9.82172 133.739 10.7637" stroke="#0B0B0B" stroke-width="3" stroke-miterlimit="10" stroke-linecap="round" stroke-linejoin="round"/>
</svg>
