<svg width="17" height="18" viewBox="0 0 17 18" fill="none" xmlns="http://www.w3.org/2000/svg">
<path d="M10.7933 8.74194L8.12916 6.96527C8.00355 6.88146 7.85751 6.83336 7.70668 6.82611C7.55584 6.81886 7.40587 6.85273 7.27279 6.9241C7.13971 6.99548 7.02853 7.10167 6.95112 7.23134C6.87372 7.361 6.83301 7.50926 6.83333 7.66027V11.2128C6.83331 11.3636 6.87424 11.5117 6.95177 11.6411C7.02929 11.7705 7.1405 11.8765 7.27353 11.9477C7.40655 12.0188 7.5564 12.0526 7.70709 12.0452C7.85779 12.0379 8.00366 11.9898 8.12916 11.9061L10.7933 10.1294C10.9075 10.0533 11.001 9.95024 11.0658 9.82929C11.1305 9.70834 11.1644 9.57328 11.1644 9.4361C11.1644 9.29893 11.1305 9.16387 11.0658 9.04292C11.001 8.92197 10.9075 8.81804 10.7933 8.74194Z" stroke="black" stroke-width="2" stroke-linecap="round" stroke-linejoin="round"/>
<path d="M16 9.43527C16 10.4202 15.806 11.3955 15.4291 12.3054C15.0522 13.2153 14.4997 14.0421 13.8033 14.7386C13.1069 15.435 12.2801 15.9875 11.3701 16.3644C10.4602 16.7413 9.48491 16.9353 8.5 16.9353C7.51509 16.9353 6.53982 16.7413 5.62987 16.3644C4.71993 15.9875 3.89314 15.435 3.1967 14.7386C2.50026 14.0421 1.94781 13.2153 1.5709 12.3054C1.19399 11.3955 1 10.4202 1 9.43527C1 7.44615 1.79018 5.53849 3.1967 4.13197C4.60322 2.72545 6.51088 1.93527 8.5 1.93527C10.4891 1.93527 12.3968 2.72545 13.8033 4.13197C15.2098 5.53849 16 7.44615 16 9.43527Z" stroke="black" stroke-width="2" stroke-linecap="round" stroke-linejoin="round"/>
</svg>
