<svg width="17" height="18" viewBox="0 0 17 18" fill="none" xmlns="http://www.w3.org/2000/svg">
<path d="M6.83333 6.06473V11.0647M10.1667 6.06473V11.0647M16 8.56473C16 9.54964 15.806 10.5249 15.4291 11.4349C15.0522 12.3448 14.4997 13.1716 13.8033 13.868C13.1069 14.5645 12.2801 15.1169 11.3701 15.4938C10.4602 15.8707 9.48491 16.0647 8.5 16.0647C7.51509 16.0647 6.53982 15.8707 5.62987 15.4938C4.71993 15.1169 3.89314 14.5645 3.1967 13.868C2.50026 13.1716 1.94781 12.3448 1.5709 11.4349C1.19399 10.5249 1 9.54964 1 8.56473C1 6.5756 1.79018 4.66795 3.1967 3.26143C4.60322 1.8549 6.51088 1.06473 8.5 1.06473C10.4891 1.06473 12.3968 1.8549 13.8033 3.26143C15.2098 4.66795 16 6.5756 16 8.56473Z" stroke="black" stroke-width="2" stroke-linecap="round" stroke-linejoin="round"/>
</svg>
